<?xml version="1.0" encoding="utf-8"?>
<!-- Generator: Adobe Illustrator 16.0.0, SVG Export Plug-In . SVG Version: 6.00 Build 0)  -->
<!DOCTYPE svg PUBLIC "-//W3C//DTD SVG 1.1//EN" "http://www.w3.org/Graphics/SVG/1.1/DTD/svg11.dtd">
<svg version="1.1" id="Layer_1" xmlns="http://www.w3.org/2000/svg" xmlns:xlink="http://www.w3.org/1999/xlink" x="0px" y="0px"
	 width="64px" height="64px" viewBox="0 0 64 64" enable-background="new 0 0 64 64" xml:space="preserve">
<path d="M59.498,19.68c-1.504-3.56-3.661-6.76-6.41-9.512c-2.75-2.749-5.95-4.905-9.512-6.409
	c-3.689-1.563-7.609-2.356-11.649-2.356s-7.96,0.792-11.65,2.355c-3.56,1.503-6.76,3.66-9.511,6.411
	c-2.749,2.75-4.906,5.951-6.411,9.511C2.792,23.37,2,27.29,2,31.33c0,4.037,0.792,7.956,2.354,11.651
	c1.508,3.563,3.665,6.762,6.411,9.507c2.75,2.75,5.949,4.908,9.51,6.413c3.692,1.562,7.612,2.354,11.651,2.354
	c4.038,0,7.959-0.792,11.649-2.354c3.562-1.506,6.763-3.664,9.512-6.413c2.747-2.746,4.904-5.944,6.41-9.507
	c1.562-3.696,2.354-7.615,2.354-11.651C61.852,27.291,61.06,23.371,59.498,19.68z M38.645,47.859c-0.863,0-1.519-0.178-1.893-0.514
	c-0.25-0.226-0.382-0.534-0.382-0.896c0-0.862-0.023-23.944-0.023-23.944h8.451c0.68,0,1.146,0.166,1.387,0.495
	c0.157,0.213,0.189,0.435,0.19,0.435c0,0,0,0,0,0l0.09,1.477h5.322c0.668,2.062,1.017,4.21,1.017,6.418
	c0,2.822-0.553,5.556-1.641,8.124c-1.052,2.488-2.557,4.721-4.475,6.638c-1.295,1.294-2.743,2.384-4.306,3.291v-1.523H38.645z
	 M31.927,10.454c2.824,0,5.557,0.552,8.125,1.639c1.308,0.552,2.541,1.239,3.701,2.039H20.101c1.159-0.799,2.393-1.486,3.702-2.04
	C26.37,11.005,29.103,10.454,31.927,10.454z M12.065,24.912h5.312l0.098-1.447c0-0.003,0.028-0.24,0.191-0.463
	c0.243-0.329,0.71-0.495,1.388-0.495h8.453C27.5,28.38,27.482,45.227,27.482,46.45c0,0.474-0.161,0.777-0.541,1.014
	c-0.401,0.252-1.034,0.396-1.734,0.396h-3.738v1.522c-1.562-0.906-3.009-1.996-4.304-3.29c-1.918-1.918-3.425-4.15-4.477-6.638
	c-1.087-2.569-1.638-5.303-1.638-8.124C11.051,29.124,11.398,26.974,12.065,24.912z"/>
</svg>
