<?xml version="1.0" encoding="utf-8"?>
<!-- Generator: Adobe Illustrator 16.0.0, SVG Export Plug-In . SVG Version: 6.00 Build 0)  -->
<!DOCTYPE svg PUBLIC "-//W3C//DTD SVG 1.1//EN" "http://www.w3.org/Graphics/SVG/1.1/DTD/svg11.dtd">
<svg version="1.1" id="Layer_1" xmlns="http://www.w3.org/2000/svg" xmlns:xlink="http://www.w3.org/1999/xlink" x="0px" y="0px"
	 width="64px" height="64px" viewBox="0 0 64 64" enable-background="new 0 0 64 64" xml:space="preserve">
<g>
	<path d="M31.668,2.416c-16.201,0-29.334,13.133-29.334,29.334c0,16.2,13.133,29.333,29.334,29.333
		c16.2,0,29.333-13.133,29.333-29.333C61.001,15.549,47.868,2.416,31.668,2.416z M31.443,51.683c0,0-17.437-17.468-17.437-26.051
		c0-8.586,7.806-15.548,17.437-15.548c9.632,0,17.438,6.962,17.438,15.548C48.882,34.215,31.443,51.683,31.443,51.683z"/>
	<path d="M39.305,18.796c-0.507-0.401-1.106-0.7-1.742-0.908c-0.81-0.26-1.55-0.279-2.403-0.279
		c-0.801,0.137-1.591,0.362-2.275,0.762c-0.578,0.339-0.948,0.966-1.416,1.404c-0.007,0.008-0.013,0.016-0.021,0.022
		c-0.48-0.437-0.855-1.082-1.44-1.427c-0.688-0.399-1.478-0.625-2.278-0.762c-0.852,0-1.592,0.02-2.398,0.279
		c-0.639,0.208-1.238,0.507-1.745,0.908c-2.446,1.928-2.103,5.214-0.35,7.415c1.916,2.413,4.917,3.975,7.024,6.254
		c0.278,0.302,0.543,0.617,0.792,0.939c0,0.003,0.358,0.459,0.396,0.345c0.03,0.114,0.391-0.342,0.391-0.345
		c0.247-0.322,0.515-0.638,0.791-0.939c2.107-2.279,5.107-3.841,7.023-6.254C41.402,24.01,41.75,20.724,39.305,18.796z"/>
</g>
</svg>
