<?xml version="1.0" encoding="utf-8"?>
<!-- Generator: Adobe Illustrator 16.0.0, SVG Export Plug-In . SVG Version: 6.00 Build 0)  -->
<!DOCTYPE svg PUBLIC "-//W3C//DTD SVG 1.1//EN" "http://www.w3.org/Graphics/SVG/1.1/DTD/svg11.dtd">
<svg version="1.1" id="Layer_1" xmlns="http://www.w3.org/2000/svg" xmlns:xlink="http://www.w3.org/1999/xlink" x="0px" y="0px"
	 width="64px" height="64px" viewBox="0 0 64 64" enable-background="new 0 0 64 64" xml:space="preserve">
<path d="M32.385,3.459C16.622,3.459,3.843,16.237,3.843,32s12.778,28.541,28.542,28.541c15.762,0,28.541-12.778,28.541-28.541
	S48.146,3.459,32.385,3.459z M32.402,53.844c-3.43,0-5.764-2.523-5.764-5.887c0-3.43,2.397-5.888,5.764-5.888
	c3.492,0,5.758,2.458,5.82,5.888C38.223,51.32,35.895,53.844,32.402,53.844z M40.23,29.777c-2.397,2.652-3.366,5.176-3.304,8.086
	v1.164h-8.603l-0.062-1.681c-0.195-3.3,0.9-6.664,3.813-10.159c2.07-2.458,3.751-4.528,3.751-6.727c0-2.265-1.485-3.753-4.721-3.882
	c-2.133,0-4.725,0.777-6.405,1.941l-2.202-7.051c2.334-1.359,6.216-2.652,10.805-2.652c8.545,0,12.422,4.723,12.422,10.09
	C45.725,23.824,42.685,27.059,40.23,29.777z"/>
</svg>
