<?xml version="1.0" encoding="utf-8"?>
<!-- Generator: Adobe Illustrator 16.0.0, SVG Export Plug-In . SVG Version: 6.00 Build 0)  -->
<!DOCTYPE svg PUBLIC "-//W3C//DTD SVG 1.1//EN" "http://www.w3.org/Graphics/SVG/1.1/DTD/svg11.dtd">
<svg version="1.1" id="Layer_1" xmlns="http://www.w3.org/2000/svg" xmlns:xlink="http://www.w3.org/1999/xlink" x="0px" y="0px"
	 width="64px" height="64px" viewBox="0 0 64 64" enable-background="new 0 0 64 64" xml:space="preserve">
<path d="M53.59,50.741l0.356-0.298c4.412-3.939,8.495-8.361,8.495-14c0-6.533-4.663-10.756-11.878-10.756
	c-3.949,0-7.848,1.232-10.693,3.38l-0.741,0.56l2.945,7.467l1.286-0.985c1.972-1.51,3.906-2.275,5.752-2.275
	c2.473,0,3.778,1.114,3.778,3.188c-0.076,3.027-3.14,6.288-9.553,12.025l-4.326,3.916v6.064H63v-8.286H53.59z"/>
<path d="M38.012,60.027V52.52l4.407-3.989h-3.7c-0.863,0-1.519-0.178-1.893-0.514c-0.25-0.226-0.382-0.534-0.382-0.896
	c0-0.862-0.023-23.944-0.023-23.944h8.451c0.68,0,1.146,0.166,1.387,0.494c0.157,0.214,0.189,0.436,0.19,0.436l0.062,1.007
	c1.322-0.271,2.683-0.426,4.053-0.426c5.252,0,9.246,2.087,11.312,5.614c-0.191-3.439-0.961-6.78-2.303-9.951
	c-1.504-3.559-3.661-6.76-6.41-9.512c-2.75-2.748-5.95-4.905-9.512-6.409c-3.689-1.563-7.609-2.356-11.649-2.356
	s-7.96,0.793-11.65,2.355c-3.56,1.504-6.76,3.66-9.511,6.411c-2.749,2.751-4.906,5.95-6.411,9.511
	c-1.562,3.69-2.354,7.609-2.354,11.65c0,4.037,0.792,7.956,2.354,11.651c1.508,3.563,3.665,6.762,6.411,9.507
	c2.75,2.75,5.949,4.908,9.51,6.413c3.692,1.562,7.612,2.354,11.651,2.354c3.62,0,7.145-0.642,10.495-1.899H38.012z M27.557,47.121
	c0,0.474-0.161,0.777-0.541,1.014c-0.401,0.252-1.034,0.396-1.734,0.396h-3.738v1.522c-1.562-0.906-3.009-1.996-4.304-3.29
	c-1.918-1.918-3.425-4.15-4.477-6.638c-1.087-2.569-1.638-5.303-1.638-8.124c0-2.207,0.348-4.356,1.015-6.418h5.312l0.098-1.447
	c0-0.004,0.028-0.24,0.191-0.464c0.243-0.329,0.71-0.495,1.388-0.495h8.453C27.574,29.052,27.557,45.897,27.557,47.121z
	 M20.175,14.803c1.159-0.799,2.393-1.485,3.702-2.04c2.567-1.086,5.3-1.639,8.124-1.639s5.557,0.553,8.125,1.64
	c1.308,0.552,2.541,1.239,3.701,2.039H20.175z"/>
</svg>
