<?xml version="1.0" encoding="utf-8"?>
<!-- Generator: Adobe Illustrator 16.0.0, SVG Export Plug-In . SVG Version: 6.00 Build 0)  -->
<!DOCTYPE svg PUBLIC "-//W3C//DTD SVG 1.1//EN" "http://www.w3.org/Graphics/SVG/1.1/DTD/svg11.dtd">
<svg version="1.1" id="Layer_1" xmlns="http://www.w3.org/2000/svg" xmlns:xlink="http://www.w3.org/1999/xlink" x="0px" y="0px"
	 width="3456px" height="2592px" viewBox="0 0 3456 2592" enable-background="new 0 0 3456 2592" xml:space="preserve">
<g>
	<path d="M2565.734,340.07c0-70.502-53.914-124.416-124.416-124.416H1014.682c-70.502,0-124.416,53.914-124.416,124.416v920.679
		h1675.469V340.07z"/>
	<path d="M2719.181,1750.118l-141.005-410.572H877.824l-141.005,410.573c-16.589,53.913,20.735,107.826,78.797,107.826h1828.915
		C2698.445,1857.945,2739.917,1804.032,2719.181,1750.118z M1831.68,1422.489h49.767c24.884,0,41.472,16.589,41.472,41.473
		c0,24.883-16.588,41.472-41.472,41.472h-49.767c-24.883,0-41.472-16.589-41.472-41.472
		C1790.208,1439.078,1806.797,1422.489,1831.68,1422.489z M1574.554,1422.489h49.767c24.883,0,41.472,16.589,41.472,41.473
		c0,24.883-16.589,41.472-41.472,41.472h-49.767c-24.884,0-41.472-16.589-41.472-41.472
		C1533.082,1439.078,1553.817,1422.489,1574.554,1422.489z M1010.534,1733.529h-58.061c-24.884,0-41.472-16.589-41.472-41.472
		s16.588-41.472,41.472-41.472h58.061c24.884,0,41.472,16.589,41.472,41.472S1035.418,1733.529,1010.534,1733.529z
		 M1114.215,1505.434h-49.767c-24.884,0-41.472-16.589-41.472-41.472c0-24.884,16.588-41.473,41.472-41.473h49.767
		c24.883,0,41.472,16.589,41.472,41.473C1155.687,1488.845,1134.95,1505.434,1114.215,1505.434z M1309.133,1733.529h-58.061
		c-24.884,0-41.473-16.589-41.473-41.472s16.589-41.472,41.473-41.472h58.061c24.883,0,41.472,16.589,41.472,41.472
		S1334.016,1733.529,1309.133,1733.529z M1371.341,1505.434h-49.767c-24.883,0-41.472-16.589-41.472-41.472
		c0-24.884,16.589-41.473,41.472-41.473h49.767c24.883,0,41.472,16.589,41.472,41.473
		C1412.812,1488.845,1392.076,1505.434,1371.341,1505.434z M1906.33,1733.529h-356.66c-24.883,0-41.472-16.589-41.472-41.472
		s16.589-41.472,41.472-41.472h356.66c24.883,0,41.472,16.589,41.472,41.472S1927.065,1733.529,1906.33,1733.529z
		 M2043.188,1463.962c0-24.884,16.588-41.473,41.472-41.473h49.767c24.883,0,41.472,16.589,41.472,41.473
		c0,24.883-16.589,41.472-41.472,41.472h-49.767C2063.923,1505.434,2043.188,1488.845,2043.188,1463.962z M2204.928,1733.529
		h-58.061c-24.883,0-41.473-16.589-41.473-41.472s16.59-41.472,41.473-41.472h58.061c24.883,0,41.473,16.589,41.473,41.472
		S2225.664,1733.529,2204.928,1733.529z M2341.785,1505.434c-24.883,0-41.472-16.589-41.472-41.472
		c0-24.884,16.589-41.473,41.472-41.473h49.767c24.884,0,41.472,16.589,41.472,41.473c0,24.883-16.588,41.472-41.472,41.472
		H2341.785z M2503.526,1733.529h-58.061c-24.884,0-41.472-16.589-41.472-41.472s16.588-41.472,41.472-41.472h58.061
		c24.884,0,41.472,16.589,41.472,41.472S2524.262,1733.529,2503.526,1733.529z"/>
</g>
</svg>
