<svg height='100px' width='100px'  fill="#000000" xmlns="http://www.w3.org/2000/svg" xmlns:xlink="http://www.w3.org/1999/xlink" version="1.1" x="0px" y="0px" viewBox="0 0 100 100" enable-background="new 0 0 100 100" xml:space="preserve"><path d="M97.991,44.019c0.578-13.757-35.354-16.455-36.781-18.023C60.499,25.216,67.86,0.985,49.999,1  C32.138,0.985,39.498,25.216,38.787,25.996C37.36,27.564,1.43,30.262,2.007,44.019c0.576,13.758,24.051,0.692,27.778,4.741  c3.26,3.544-12.279,30.229-14.353,44.634C14.756,98.089,16.076,99,20.639,99c8.276,0,4.177-0.005,11.453-0.005  c3.287,0,4.456-3.889,6.152-6.492c3.754-5.762,9.288-18.024,11.755-18.023C52.465,74.479,58,86.741,61.754,92.502  c1.696,2.604,2.864,6.492,6.151,6.492c7.275,0,3.177,0.005,11.453,0.005c4.563,0,5.884-0.911,5.207-5.606  c-2.073-14.405-17.611-41.09-14.353-44.634C73.939,44.711,97.416,57.777,97.991,44.019z"></path></svg>