<?xml version="1.0" encoding="utf-8"?>
<!-- Generator: Adobe Illustrator 16.0.0, SVG Export Plug-In . SVG Version: 6.00 Build 0)  -->
<!DOCTYPE svg PUBLIC "-//W3C//DTD SVG 1.1//EN" "http://www.w3.org/Graphics/SVG/1.1/DTD/svg11.dtd">
<svg version="1.1" id="Layer_1" xmlns="http://www.w3.org/2000/svg" xmlns:xlink="http://www.w3.org/1999/xlink" x="0px" y="0px"
	 width="3456px" height="2592px" viewBox="0 0 3456 2592" enable-background="new 0 0 3456 2592" xml:space="preserve">
<g>
	<path d="M2704.033,1248.579c-136.857-143.078-547.43-526.694-974.592-526.694c-460.339,0-848.103,383.616-976.666,526.694
		c-26.956,29.03-26.956,74.649,0,103.681c128.563,141.004,518.4,520.473,976.666,520.473c456.192,0,843.955-375.321,974.592-518.399
		C2733.064,1325.303,2733.064,1277.609,2704.033,1248.579z M1731.516,1698.551c-219.803,0-398.132-178.33-398.132-398.132
		s178.329-398.131,398.132-398.131c219.801,0,398.131,178.329,398.131,398.131S1949.243,1698.551,1731.516,1698.551z"/>
	<circle cx="1731.516" cy="1300.419" r="130.637"/>
</g>
</svg>
